# xmcd
#
# Track frame offsets:
#	150
#	18770
#	37345
#	55689
#	75059
#	93769
#	111183
#	129068
#	145444
#	162420
#	178505
#	197674
#
# Disc length: 2894 seconds
#
# Revision: 1
# Processed by: cddbd v1.5.2PL0 Copyright (c) Steve Scherf et al.
# Submitted via: audiograbber 1.83.01
#
DISCID=8d0b4c0c
DTITLE=Chartbuster - CB30135
DYEAR=2010
DGENRE=Karaoke
TTITLE0=Lifehouse - All In
TTITLE1=Katy Perry and Snoop Dogg - California Gurls
TTITLE2=Train - If It's Love
TTITLE3=Rihanna - Rockstar 101
TTITLE4=Daughtry - September
TTITLE5=Beyonce - Why Don't You Love Me
TTITLE6=OneRepublic - Secrets
TTITLE7=Sara Bareillas - King Of Anything
TTITLE8=Brian McKnight - Just A Little Bit
TTITLE9=3Oh!3 and Ke$ha - My First Kiss
TTITLE10=Uncle Kracker and Kid Rock - Good To Be Me
TTITLE11=Fantasia - Bittersweet
EXTD=
EXTT0=
EXTT1=
EXTT2=
EXTT3=
EXTT4=
EXTT5=
EXTT6=
EXTT7=
EXTT8=
EXTT9=
EXTT10=
EXTT11=
PLAYORDER=
